<?xml version="1.0" encoding="utf-8"?>
<!-- Generator: Fusion 360, Shaper Origin Export Add-In, Version 1.6.3  -->
<svg xmlns="http://www.w3.org/2000/svg" xmlnsXlink="http://www.w3.org/1999/xlink" xmlnsShaper="http://www.shapertools.com/namespaces/shaper" shaperFusionaddin="version:1.6.3" width="18.169873cm" height="16.0705081cm" version="1.1" x="0cm" y="0cm" viewBox="0 0 18.169873 16.0705081" enable-background="new 0 0 18.169873 16.0705081" xmlSpace="preserve"><path d="M4.2464102,6.608588 L5.1689111,7.1411941 5.6490381,7.4183956 A0.5,0.5 300 0,1 5.8320508,7.6014083 L9.7401924,14.3705081 A0.3,0.3 150 0,0 10.2598076,14.3705081 L12.0174682,11.3261506 A0.2,0.2 210 0,1 12.2906733,11.2529455 L12.6367141,11.4527323 13.0267949,11.6779455 A0.2,0.2 300 0,1 13.1,11.9511506 L11.0825318,15.4455081 A1.25,1.25 30 0,1 8.9174682,15.4455081 L4.0579396,7.0285576 3.9732051,6.8817931 A0.2,0.2 150 0,1 4.2464102,6.608588z" transform="matrix(1,0,0,-1,-0.9150635,16.0705081)" fill="rgb(217, 149, 2)" shaperCutDepth="0" stroke-linecap="round" stroke-linejoin="round" /><path d="M7.2434301,5.0480217 L6.3684301,6.5635662 A0.25,0.25 30 0,1 6.0269238,6.6550726 L5.1608984,6.1550726 A0.25,0.25 120 0,1 5.069392,5.8135662 L7.569392,1.4834392 A0.25,0.25 210 0,1 7.9108984,1.3919328 L8.7769238,1.8919328 A0.25,0.25 300 0,1 8.8684301,2.2334392 L7.9934301,3.7489836 12.7565699,6.4989836 13.6315699,4.9834392 A0.25,0.25 210 0,1 13.9730762,4.8919328 L14.8391016,5.3919328 A0.25,0.25 300 0,1 14.930608,5.7334392 L12.430608,10.0635662 A0.25,0.25 30 0,1 12.0891016,10.1550726 L11.2230762,9.6550726 A0.25,0.25 120 0,1 11.1315699,9.3135662 L12.0065699,7.7980217 7.2434301,5.0480217z" transform="matrix(1,0,0,-1,-0.9150635,16.0705081)" fill="rgb(217, 149, 2)" shaperCutDepth="0" stroke-linecap="round" stroke-linejoin="round" /><path d="M16.4461524,6.6084392 L13.9461524,10.9385662 A0.25,0.25 30 0,1 13.6046461,11.0300726 L12.7386207,10.5300726 A0.25,0.25 120 0,1 12.6471143,10.1885662 L15.1471143,5.8584392 A0.25,0.25 210 0,1 15.4886207,5.7669328 L16.3546461,6.2669328 A0.25,0.25 300 0,1 16.4461524,6.6084392z" transform="matrix(1,0,0,-1,-0.9150635,16.0705081)" fill="rgb(217, 149, 2)" shaperCutDepth="0" stroke-linecap="round" stroke-linejoin="round" /><path d="M15.6201905,11.0390471 L14.7541651,10.5390471 A0.25,0.25 120 0,1 14.6626588,10.1975408 L16.1626588,7.5994646 A0.25,0.25 210 0,1 16.5041651,7.5079582 L17.3701905,8.0079582 A0.25,0.25 300 0,1 17.4616969,8.3494646 L15.9616969,10.9475408 A0.25,0.25 30 0,1 15.6201905,11.0390471z" transform="matrix(1,0,0,-1,-0.9150635,16.0705081)" fill="rgb(217, 149, 2)" shaperCutDepth="0" stroke-linecap="round" stroke-linejoin="round" /><path d="M16.6267949,5.4425626 L16.2572136,5.2291847 15.8906733,5.0175626 A0.2,0.2 120 0,1 15.8174682,4.7443575 L17.5751289,1.7 A0.3,0.3 30 0,0 17.3153212,1.25 L9.4990381,1.25 A0.5,0.5 90 0,1 9.2490381,1.1830127 L8.5351915,0.7708731 7.8464102,0.3732051 A0.2,0.2 120 0,1 7.9464102,0 L17.8349365,0 A1.25,1.25 270 0,1 18.9174682,1.875 L16.9,5.3693575 A0.2,0.2 30 0,1 16.6267949,5.4425626z" transform="matrix(1,0,0,-1,-0.9150635,16.0705081)" fill="rgb(217, 149, 2)" shaperCutDepth="0" stroke-linecap="round" stroke-linejoin="round" /><path d="M3.5538476,4.9385662 L6.0538476,0.6084392 A0.25,0.25 210 0,1 6.3953539,0.5169328 L7.2613793,1.0169328 A0.25,0.25 300 0,1 7.3528857,1.3584392 L4.8528857,5.6885662 A0.25,0.25 30 0,1 4.5113793,5.7800726 L3.6453539,5.2800726 A0.25,0.25 120 0,1 3.5538476,4.9385662z" transform="matrix(1,0,0,-1,-0.9150635,16.0705081)" fill="rgb(217, 149, 2)" shaperCutDepth="0" stroke-linecap="round" stroke-linejoin="round" /><path d="M5.2458349,1.0079582 A0.25,0.25 300 0,1 5.3373412,1.3494646 L3.8373412,3.9475408 A0.25,0.25 30 0,1 3.4958349,4.0390471 L2.6298095,3.5390471 A0.25,0.25 120 0,1 2.5383031,3.1975408 L4.0383031,0.5994646 A0.25,0.25 210 0,1 4.3798095,0.5079582 L5.2458349,1.0079582z" transform="matrix(1,0,0,-1,-0.9150635,16.0705081)" fill="rgb(217, 149, 2)" shaperCutDepth="0" stroke-linecap="round" stroke-linejoin="round" /><path d="M2.3210982,1.8737508 L2.0301738,2.3776466 1.8746594,2.6470054 A0.2,0.2 30 0,1 1.5282493,2.6470054 L1.0825318,1.875 A1.25,1.25 150 0,1 2.1650635,-0 L3.0564985,0 A0.2,0.2 270 0,1 3.2297036,0.3 L2.7832649,1.0732546 A0.5,0.5 30 0,1 2.5592688,1.2774705 A0.3,0.3 245.2895202 0,0 2.3859563,1.5776565 A0.5,0.5 354.7104798 0,1 2.3210982,1.8737508z" transform="matrix(1,0,0,-1,-0.9150635,16.0705081)" fill="rgb(217, 149, 2)" shaperCutDepth="0" stroke-linecap="round" stroke-linejoin="round" /></svg>